<svg xmlns="http://www.w3.org/2000/svg" style="cursor: move;" width="1855" height="1102"><g transform="translate(-3762.77339169017,-2362.4776463717208) scale(5.098242509277049)"><path class="link" style="stroke-width: 0.5px; stroke-opacity: 1; stroke: rgb(80, 80, 80); opacity: 1;" marker-end="" d="M882,479, 876.5,568"></path><path class="link" style="stroke-width: 0.5px; stroke-opacity: 1; stroke: rgb(80, 80, 80); opacity: 1;" marker-end="" d="M919,479, 876.5,568"></path><path class="link" style="stroke-width: 0.5px; stroke-opacity: 1; stroke: rgb(80, 80, 80); opacity: 1;" marker-end="" d="M882,479, 893.5,568"></path><path class="link" style="stroke-width: 0.5px; stroke-opacity: 1; stroke: rgb(80, 80, 80); opacity: 1;" marker-end="" d="M919,479, 893.5,568"></path><path class="link" style="stroke-width: 0.5px; stroke-opacity: 1; stroke: rgb(80, 80, 80); opacity: 1;" marker-end="" d="M882,479, 910.5,568"></path><path class="link" style="stroke-width: 0.5px; stroke-opacity: 1; stroke: rgb(80, 80, 80); opacity: 1;" marker-end="" d="M919,479, 910.5,568"></path><path class="link" style="stroke-width: 0.5px; stroke-opacity: 1; stroke: rgb(80, 80, 80); opacity: 1;" marker-end="" d="M956,479, 876.5,568"></path><path class="link" style="stroke-width: 0.5px; stroke-opacity: 1; stroke: rgb(80, 80, 80); opacity: 1;" marker-end="" d="M956,479, 893.5,568"></path><path class="link" style="stroke-width: 0.5px; stroke-opacity: 1; stroke: rgb(80, 80, 80); opacity: 1;" marker-end="" d="M956,479, 910.5,568"></path><path class="link" style="stroke-width: 0.5px; stroke-opacity: 1; stroke: rgb(80, 80, 80); opacity: 1;" marker-end="" d="M859.5,568, 859.5,657"></path><path class="link" style="stroke-width: 0.5px; stroke-opacity: 1; stroke: rgb(80, 80, 80); opacity: 1;" marker-end="" d="M876.5,568, 859.5,657"></path><path class="link" style="stroke-width: 0.5px; stroke-opacity: 1; stroke: rgb(80, 80, 80); opacity: 1;" marker-end="" d="M893.5,568, 859.5,657"></path><path class="link" style="stroke-width: 0.5px; stroke-opacity: 1; stroke: rgb(80, 80, 80); opacity: 1;" marker-end="" d="M910.5,568, 859.5,657"></path><path class="link" style="stroke-width: 0.5px; stroke-opacity: 1; stroke: rgb(80, 80, 80); opacity: 1;" marker-end="" d="M882,479, 927.5,568"></path><path class="link" style="stroke-width: 0.5px; stroke-opacity: 1; stroke: rgb(80, 80, 80); opacity: 1;" marker-end="" d="M919,479, 927.5,568"></path><path class="link" style="stroke-width: 0.5px; stroke-opacity: 1; stroke: rgb(80, 80, 80); opacity: 1;" marker-end="" d="M956,479, 927.5,568"></path><path class="link" style="stroke-width: 0.5px; stroke-opacity: 1; stroke: rgb(80, 80, 80); opacity: 1;" marker-end="" d="M927.5,568, 859.5,657"></path><path class="link" style="stroke-width: 0.5px; stroke-opacity: 1; stroke: rgb(80, 80, 80); opacity: 1;" marker-end="" d="M859.5,568, 876.5,657"></path><path class="link" style="stroke-width: 0.5px; stroke-opacity: 1; stroke: rgb(80, 80, 80); opacity: 1;" marker-end="" d="M876.5,568, 876.5,657"></path><path class="link" style="stroke-width: 0.5px; stroke-opacity: 1; stroke: rgb(80, 80, 80); opacity: 1;" marker-end="" d="M893.5,568, 876.5,657"></path><path class="link" style="stroke-width: 0.5px; stroke-opacity: 1; stroke: rgb(80, 80, 80); opacity: 1;" marker-end="" d="M910.5,568, 876.5,657"></path><path class="link" style="stroke-width: 0.5px; stroke-opacity: 1; stroke: rgb(80, 80, 80); opacity: 1;" marker-end="" d="M927.5,568, 876.5,657"></path><path class="link" style="stroke-width: 0.5px; stroke-opacity: 1; stroke: rgb(80, 80, 80); opacity: 1;" marker-end="" d="M859.5,568, 893.5,657"></path><path class="link" style="stroke-width: 0.5px; stroke-opacity: 1; stroke: rgb(80, 80, 80); opacity: 1;" marker-end="" d="M876.5,568, 893.5,657"></path><path class="link" style="stroke-width: 0.5px; stroke-opacity: 1; stroke: rgb(80, 80, 80); opacity: 1;" marker-end="" d="M893.5,568, 893.5,657"></path><path class="link" style="stroke-width: 0.5px; stroke-opacity: 1; stroke: rgb(80, 80, 80); opacity: 1;" marker-end="" d="M910.5,568, 893.5,657"></path><path class="link" style="stroke-width: 0.5px; stroke-opacity: 1; stroke: rgb(80, 80, 80); opacity: 1;" marker-end="" d="M927.5,568, 893.5,657"></path><path class="link" style="stroke-width: 0.5px; stroke-opacity: 1; stroke: rgb(80, 80, 80); opacity: 1;" marker-end="" d="M859.5,568, 910.5,657"></path><path class="link" style="stroke-width: 0.5px; stroke-opacity: 1; stroke: rgb(80, 80, 80); opacity: 1;" marker-end="" d="M876.5,568, 910.5,657"></path><path class="link" style="stroke-width: 0.5px; stroke-opacity: 1; stroke: rgb(80, 80, 80); opacity: 1;" marker-end="" d="M893.5,568, 910.5,657"></path><path class="link" style="stroke-width: 0.5px; stroke-opacity: 1; stroke: rgb(80, 80, 80); opacity: 1;" marker-end="" d="M910.5,568, 910.5,657"></path><path class="link" style="stroke-width: 0.5px; stroke-opacity: 1; stroke: rgb(80, 80, 80); opacity: 1;" marker-end="" d="M927.5,568, 910.5,657"></path><path class="link" style="stroke-width: 0.5px; stroke-opacity: 1; stroke: rgb(80, 80, 80); opacity: 1;" marker-end="" d="M859.5,568, 927.5,657"></path><path class="link" style="stroke-width: 0.5px; stroke-opacity: 1; stroke: rgb(80, 80, 80); opacity: 1;" marker-end="" d="M876.5,568, 927.5,657"></path><path class="link" style="stroke-width: 0.5px; stroke-opacity: 1; stroke: rgb(80, 80, 80); opacity: 1;" marker-end="" d="M893.5,568, 927.5,657"></path><path class="link" style="stroke-width: 0.5px; stroke-opacity: 1; stroke: rgb(80, 80, 80); opacity: 1;" marker-end="" d="M910.5,568, 927.5,657"></path><path class="link" style="stroke-width: 0.5px; stroke-opacity: 1; stroke: rgb(80, 80, 80); opacity: 1;" marker-end="" d="M927.5,568, 927.5,657"></path><path class="link" style="stroke-width: 0.5px; stroke-opacity: 1; stroke: rgb(80, 80, 80); opacity: 1;" marker-end="" d="M882,479, 944.5,568"></path><path class="link" style="stroke-width: 0.5px; stroke-opacity: 1; stroke: rgb(80, 80, 80); opacity: 1;" marker-end="" d="M919,479, 944.5,568"></path><path class="link" style="stroke-width: 0.5px; stroke-opacity: 1; stroke: rgb(80, 80, 80); opacity: 1;" marker-end="" d="M956,479, 944.5,568"></path><path class="link" style="stroke-width: 0.5px; stroke-opacity: 1; stroke: rgb(80, 80, 80); opacity: 1;" marker-end="" d="M944.5,568, 859.5,657"></path><path class="link" style="stroke-width: 0.5px; stroke-opacity: 1; stroke: rgb(80, 80, 80); opacity: 1;" marker-end="" d="M944.5,568, 876.5,657"></path><path class="link" style="stroke-width: 0.5px; stroke-opacity: 1; stroke: rgb(80, 80, 80); opacity: 1;" marker-end="" d="M944.5,568, 893.5,657"></path><path class="link" style="stroke-width: 0.5px; stroke-opacity: 1; stroke: rgb(80, 80, 80); opacity: 1;" marker-end="" d="M944.5,568, 910.5,657"></path><path class="link" style="stroke-width: 0.5px; stroke-opacity: 1; stroke: rgb(80, 80, 80); opacity: 1;" marker-end="" d="M944.5,568, 927.5,657"></path><path class="link" style="stroke-width: 0.5px; stroke-opacity: 1; stroke: rgb(80, 80, 80); opacity: 1;" marker-end="" d="M882,479, 961.5,568"></path><path class="link" style="stroke-width: 0.5px; stroke-opacity: 1; stroke: rgb(80, 80, 80); opacity: 1;" marker-end="" d="M919,479, 961.5,568"></path><path class="link" style="stroke-width: 0.5px; stroke-opacity: 1; stroke: rgb(80, 80, 80); opacity: 1;" marker-end="" d="M956,479, 961.5,568"></path><path class="link" style="stroke-width: 0.5px; stroke-opacity: 1; stroke: rgb(80, 80, 80); opacity: 1;" marker-end="" d="M961.5,568, 859.5,657"></path><path class="link" style="stroke-width: 0.5px; stroke-opacity: 1; stroke: rgb(80, 80, 80); opacity: 1;" marker-end="" d="M961.5,568, 876.5,657"></path><path class="link" style="stroke-width: 0.5px; stroke-opacity: 1; stroke: rgb(80, 80, 80); opacity: 1;" marker-end="" d="M961.5,568, 893.5,657"></path><path class="link" style="stroke-width: 0.5px; stroke-opacity: 1; stroke: rgb(80, 80, 80); opacity: 1;" marker-end="" d="M961.5,568, 910.5,657"></path><path class="link" style="stroke-width: 0.5px; stroke-opacity: 1; stroke: rgb(80, 80, 80); opacity: 1;" marker-end="" d="M961.5,568, 927.5,657"></path><path class="link" style="stroke-width: 0.5px; stroke-opacity: 1; stroke: rgb(80, 80, 80); opacity: 1;" marker-end="" d="M882,479, 978.5,568"></path><path class="link" style="stroke-width: 0.5px; stroke-opacity: 1; stroke: rgb(80, 80, 80); opacity: 1;" marker-end="" d="M919,479, 978.5,568"></path><path class="link" style="stroke-width: 0.5px; stroke-opacity: 1; stroke: rgb(80, 80, 80); opacity: 1;" marker-end="" d="M956,479, 978.5,568"></path><path class="link" style="stroke-width: 0.5px; stroke-opacity: 1; stroke: rgb(80, 80, 80); opacity: 1;" marker-end="" d="M978.5,568, 859.5,657"></path><path class="link" style="stroke-width: 0.5px; stroke-opacity: 1; stroke: rgb(80, 80, 80); opacity: 1;" marker-end="" d="M978.5,568, 876.5,657"></path><path class="link" style="stroke-width: 0.5px; stroke-opacity: 1; stroke: rgb(80, 80, 80); opacity: 1;" marker-end="" d="M978.5,568, 893.5,657"></path><path class="link" style="stroke-width: 0.5px; stroke-opacity: 1; stroke: rgb(80, 80, 80); opacity: 1;" marker-end="" d="M978.5,568, 910.5,657"></path><path class="link" style="stroke-width: 0.5px; stroke-opacity: 1; stroke: rgb(80, 80, 80); opacity: 1;" marker-end="" d="M978.5,568, 927.5,657"></path><path class="link" style="stroke-width: 0.5px; stroke-opacity: 1; stroke: rgb(80, 80, 80); opacity: 1;" marker-end="" d="M859.5,568, 944.5,657"></path><path class="link" style="stroke-width: 0.5px; stroke-opacity: 1; stroke: rgb(80, 80, 80); opacity: 1;" marker-end="" d="M876.5,568, 944.5,657"></path><path class="link" style="stroke-width: 0.5px; stroke-opacity: 1; stroke: rgb(80, 80, 80); opacity: 1;" marker-end="" d="M893.5,568, 944.5,657"></path><path class="link" style="stroke-width: 0.5px; stroke-opacity: 1; stroke: rgb(80, 80, 80); opacity: 1;" marker-end="" d="M910.5,568, 944.5,657"></path><path class="link" style="stroke-width: 0.5px; stroke-opacity: 1; stroke: rgb(80, 80, 80); opacity: 1;" marker-end="" d="M927.5,568, 944.5,657"></path><path class="link" style="stroke-width: 0.5px; stroke-opacity: 1; stroke: rgb(80, 80, 80); opacity: 1;" marker-end="" d="M944.5,568, 944.5,657"></path><path class="link" style="stroke-width: 0.5px; stroke-opacity: 1; stroke: rgb(80, 80, 80); opacity: 1;" marker-end="" d="M961.5,568, 944.5,657"></path><path class="link" style="stroke-width: 0.5px; stroke-opacity: 1; stroke: rgb(80, 80, 80); opacity: 1;" marker-end="" d="M978.5,568, 944.5,657"></path><path class="link" style="stroke-width: 0.5px; stroke-opacity: 1; stroke: rgb(80, 80, 80); opacity: 1;" marker-end="" d="M859.5,568, 961.5,657"></path><path class="link" style="stroke-width: 0.5px; stroke-opacity: 1; stroke: rgb(80, 80, 80); opacity: 1;" marker-end="" d="M876.5,568, 961.5,657"></path><path class="link" style="stroke-width: 0.5px; stroke-opacity: 1; stroke: rgb(80, 80, 80); opacity: 1;" marker-end="" d="M893.5,568, 961.5,657"></path><path class="link" style="stroke-width: 0.5px; stroke-opacity: 1; stroke: rgb(80, 80, 80); opacity: 1;" marker-end="" d="M910.5,568, 961.5,657"></path><path class="link" style="stroke-width: 0.5px; stroke-opacity: 1; stroke: rgb(80, 80, 80); opacity: 1;" marker-end="" d="M927.5,568, 961.5,657"></path><path class="link" style="stroke-width: 0.5px; stroke-opacity: 1; stroke: rgb(80, 80, 80); opacity: 1;" marker-end="" d="M944.5,568, 961.5,657"></path><path class="link" style="stroke-width: 0.5px; stroke-opacity: 1; stroke: rgb(80, 80, 80); opacity: 1;" marker-end="" d="M961.5,568, 961.5,657"></path><path class="link" style="stroke-width: 0.5px; stroke-opacity: 1; stroke: rgb(80, 80, 80); opacity: 1;" marker-end="" d="M978.5,568, 961.5,657"></path><path class="link" style="stroke-width: 0.5px; stroke-opacity: 1; stroke: rgb(80, 80, 80); opacity: 1;" marker-end="" d="M859.5,568, 978.5,657"></path><path class="link" style="stroke-width: 0.5px; stroke-opacity: 1; stroke: rgb(80, 80, 80); opacity: 1;" marker-end="" d="M876.5,568, 978.5,657"></path><path class="link" style="stroke-width: 0.5px; stroke-opacity: 1; stroke: rgb(80, 80, 80); opacity: 1;" marker-end="" d="M893.5,568, 978.5,657"></path><path class="link" style="stroke-width: 0.5px; stroke-opacity: 1; stroke: rgb(80, 80, 80); opacity: 1;" marker-end="" d="M910.5,568, 978.5,657"></path><path class="link" style="stroke-width: 0.5px; stroke-opacity: 1; stroke: rgb(80, 80, 80); opacity: 1;" marker-end="" d="M927.5,568, 978.5,657"></path><path class="link" style="stroke-width: 0.5px; stroke-opacity: 1; stroke: rgb(80, 80, 80); opacity: 1;" marker-end="" d="M944.5,568, 978.5,657"></path><path class="link" style="stroke-width: 0.5px; stroke-opacity: 1; stroke: rgb(80, 80, 80); opacity: 1;" marker-end="" d="M961.5,568, 978.5,657"></path><path class="link" style="stroke-width: 0.5px; stroke-opacity: 1; stroke: rgb(80, 80, 80); opacity: 1;" marker-end="" d="M978.5,568, 978.5,657"></path><path class="link" style="stroke-width: 0.5px; stroke-opacity: 1; stroke: rgb(80, 80, 80); opacity: 1;" marker-end="" d="M882,479, 859.5,568"></path><path class="link" style="stroke-width: 0.5px; stroke-opacity: 1; stroke: rgb(80, 80, 80); opacity: 1;" marker-end="" d="M919,479, 859.5,568"></path><path class="link" style="stroke-width: 0.5px; stroke-opacity: 1; stroke: rgb(80, 80, 80); opacity: 1;" marker-end="" d="M956,479, 859.5,568"></path><circle r="8.5" class="node" id="0_0" style="fill: rgb(255, 255, 255); stroke: rgb(51, 51, 51); opacity: 1;" cx="882" cy="479"></circle><circle r="8.5" class="node" id="0_1" style="fill: rgb(255, 255, 255); stroke: rgb(51, 51, 51); opacity: 1;" cx="919" cy="479"></circle><circle r="8.5" class="node" id="0_2" style="fill: rgb(255, 255, 255); stroke: rgb(51, 51, 51); opacity: 1;" cx="956" cy="479"></circle><circle r="8.5" class="node" id="1_0" style="fill: rgb(255, 255, 255); stroke: rgb(51, 51, 51); opacity: 1;" cx="859.5" cy="568"></circle><text class="text" dy=".35em" style="font-size: 12px;" x="1015.5" y="479"></text><text class="text" dy=".35em" style="font-size: 12px;" x="1015.5" y="568"></text><circle r="8.5" class="node" id="1_1" style="fill: rgb(255, 255, 255); stroke: rgb(51, 51, 51); opacity: 1;" cx="876.5" cy="568"></circle><circle r="8.5" class="node" id="1_2" style="fill: rgb(255, 255, 255); stroke: rgb(51, 51, 51); opacity: 1;" cx="893.5" cy="568"></circle><circle r="8.5" class="node" id="1_3" style="fill: rgb(255, 255, 255); stroke: rgb(51, 51, 51); opacity: 1;" cx="910.5" cy="568"></circle><circle r="8.5" class="node" id="1_4" style="fill: rgb(255, 255, 255); stroke: rgb(51, 51, 51); opacity: 1;" cx="927.5" cy="568"></circle><circle r="8.5" class="node" id="1_5" style="fill: rgb(255, 255, 255); stroke: rgb(51, 51, 51); opacity: 1;" cx="944.5" cy="568"></circle><circle r="8.5" class="node" id="1_6" style="fill: rgb(255, 255, 255); stroke: rgb(51, 51, 51); opacity: 1;" cx="961.5" cy="568"></circle><circle r="8.5" class="node" id="1_7" style="fill: rgb(255, 255, 255); stroke: rgb(51, 51, 51); opacity: 1;" cx="978.5" cy="568"></circle><circle r="8.5" class="node" id="2_0" style="fill: rgb(255, 255, 255); stroke: rgb(51, 51, 51); opacity: 1;" cx="859.5" cy="657"></circle><text class="text" dy=".35em" style="font-size: 12px;" x="1015.5" y="657"></text><circle r="8.5" class="node" id="2_1" style="fill: rgb(255, 255, 255); stroke: rgb(51, 51, 51); opacity: 1;" cx="876.5" cy="657"></circle><circle r="8.5" class="node" id="2_2" style="fill: rgb(255, 255, 255); stroke: rgb(51, 51, 51); opacity: 1;" cx="893.5" cy="657"></circle><circle r="8.5" class="node" id="2_3" style="fill: rgb(255, 255, 255); stroke: rgb(51, 51, 51); opacity: 1;" cx="910.5" cy="657"></circle><circle r="8.5" class="node" id="2_4" style="fill: rgb(255, 255, 255); stroke: rgb(51, 51, 51); opacity: 1;" cx="927.5" cy="657"></circle><circle r="8.5" class="node" id="2_5" style="fill: rgb(255, 255, 255); stroke: rgb(51, 51, 51); opacity: 1;" cx="944.5" cy="657"></circle><circle r="8.5" class="node" id="2_6" style="fill: rgb(255, 255, 255); stroke: rgb(51, 51, 51); opacity: 1;" cx="961.5" cy="657"></circle><circle r="8.5" class="node" id="2_7" style="fill: rgb(255, 255, 255); stroke: rgb(51, 51, 51); opacity: 1;" cx="978.5" cy="657"></circle></g><defs><marker id="arrow" viewBox="0 -5 10 10" markerWidth="7" markerHeight="7" orient="auto" refX="35.8"><path d="M0,-5L10,0L0,5" style="stroke: rgb(80, 80, 80); fill: none;"></path></marker></defs></svg>